{
	"asset":{
		"generator":"Khronos glTF Blender I/O v4.0.44",
		"version":"2.0"
	},
	"extensionsUsed":[
		"KHR_materials_unlit"
	],
	"scene":0,
	"scenes":[
		{
			"name":"Scene",
			"nodes":[
				18
			]
		}
	],
	"nodes":[
		{
			"mesh":0,
			"name":"Object_20"
		},
		{
			"children":[
				0
			],
			"name":"arrow_bag_8",
			"rotation":[
				-0.0015483003808185458,
				0.012398569844663143,
				0.22176292538642883,
				0.9750205874443054
			],
			"translation":[
				0.1752026379108429,
				2.643540382385254,
				-0.39880073070526123
			]
		},
		{
			"mesh":1,
			"name":"Object_22",
			"translation":[
				-2.4586915969848633e-06,
				-8.225440979003906e-06,
				0
			]
		},
		{
			"children":[
				2
			],
			"name":"arrows_9",
			"rotation":[
				0.3623254895210266,
				0.58756422996521,
				-0.3911217451095581,
				0.6086972951889038
			],
			"scale":[
				0.012807649560272694,
				0.012807649560272694,
				0.6252170205116272
			],
			"translation":[
				-0.5961613059043884,
				4.069601058959961,
				-0.4988774359226227
			]
		},
		{
			"mesh":2,
			"name":"Object_4"
		},
		{
			"children":[
				4
			],
			"name":"body_0"
		},
		{
			"mesh":3,
			"name":"Object_10",
			"translation":[
				0,
				7.62939453125e-06,
				0
			]
		},
		{
			"children":[
				6
			],
			"name":"Cube_3",
			"scale":[
				0.08905129134654999,
				0.03200434148311615,
				1
			],
			"translation":[
				0,
				3.739381790161133,
				0
			]
		},
		{
			"mesh":4,
			"name":"Object_6"
		},
		{
			"children":[
				8
			],
			"name":"ears_1"
		},
		{
			"mesh":5,
			"name":"Object_8"
		},
		{
			"children":[
				10
			],
			"name":"eyes_2"
		},
		{
			"mesh":6,
			"name":"Object_14"
		},
		{
			"children":[
				12
			],
			"name":"hair_5"
		},
		{
			"mesh":7,
			"name":"Object_12"
		},
		{
			"children":[
				14
			],
			"name":"neck_prop_4",
			"rotation":[
				0.1952686309814453,
				0,
				0,
				0.980749785900116
			],
			"scale":[
				0.13967323303222656,
				0.37025731801986694,
				0.17394164204597473
			],
			"translation":[
				0,
				3.474869728088379,
				-0.024737998843193054
			]
		},
		{
			"children":[
				1,
				3,
				5,
				7,
				9,
				11,
				13,
				15
			],
			"name":"GLTF_SceneRootNode",
			"rotation":[
				0.70710688829422,
				0,
				0,
				0.7071066498756409
			]
		},
		{
			"children":[
				16
			],
			"name":"root"
		},
		{
			"children":[
				17
			],
			"name":"Sketchfab_model",
			"rotation":[
				-0.70710688829422,
				0,
				0,
				0.7071066498756409
			]
		}
	],
	"materials":[
		{
			"doubleSided":true,
			"extensions":{
				"KHR_materials_unlit":{}
			},
			"name":"Material.001",
			"pbrMetallicRoughness":{
				"baseColorTexture":{
					"index":0
				},
				"metallicFactor":0,
				"roughnessFactor":0.9
			}
		}
	],
	"meshes":[
		{
			"name":"Object_8",
			"primitives":[
				{
					"attributes":{
						"POSITION":0,
						"NORMAL":1,
						"TEXCOORD_0":2
					},
					"indices":3,
					"material":0
				}
			]
		},
		{
			"name":"Object_9",
			"primitives":[
				{
					"attributes":{
						"POSITION":4,
						"NORMAL":5,
						"TEXCOORD_0":6
					},
					"indices":7,
					"material":0
				}
			]
		},
		{
			"name":"Object_0",
			"primitives":[
				{
					"attributes":{
						"POSITION":8,
						"NORMAL":9,
						"TEXCOORD_0":10
					},
					"indices":11,
					"material":0
				}
			]
		},
		{
			"name":"Object_3",
			"primitives":[
				{
					"attributes":{
						"POSITION":12,
						"NORMAL":13,
						"TEXCOORD_0":14
					},
					"indices":15,
					"material":0
				}
			]
		},
		{
			"name":"Object_1",
			"primitives":[
				{
					"attributes":{
						"POSITION":16,
						"NORMAL":17,
						"TEXCOORD_0":18
					},
					"indices":19,
					"material":0
				}
			]
		},
		{
			"name":"Object_2",
			"primitives":[
				{
					"attributes":{
						"POSITION":20,
						"NORMAL":21,
						"TEXCOORD_0":22
					},
					"indices":23,
					"material":0
				}
			]
		},
		{
			"name":"Object_5",
			"primitives":[
				{
					"attributes":{
						"POSITION":24,
						"NORMAL":25,
						"TEXCOORD_0":26
					},
					"indices":27,
					"material":0
				}
			]
		},
		{
			"name":"Object_4",
			"primitives":[
				{
					"attributes":{
						"POSITION":28,
						"NORMAL":29,
						"TEXCOORD_0":30
					},
					"indices":31,
					"material":0
				}
			]
		}
	],
	"textures":[
		{
			"sampler":0,
			"source":0
		}
	],
	"images":[
		{
			"mimeType":"image/png",
			"name":"Material_baseColor",
			"uri":"../../../../Material_baseColor.png/Material_baseColor.png"
		}
	],
	"accessors":[
		{
			"bufferView":0,
			"componentType":5126,
			"count":338,
			"max":[
				0.2039114236831665,
				1.249403953552246,
				0.7779325246810913
			],
			"min":[
				-0.20391161739826202,
				-0.956204891204834,
				-0.3005311191082001
			],
			"type":"VEC3"
		},
		{
			"bufferView":1,
			"componentType":5126,
			"count":338,
			"type":"VEC3"
		},
		{
			"bufferView":2,
			"componentType":5126,
			"count":338,
			"type":"VEC2"
		},
		{
			"bufferView":3,
			"componentType":5123,
			"count":528,
			"type":"SCALAR"
		},
		{
			"bufferView":4,
			"componentType":5126,
			"count":972,
			"max":[
				10.645580291748047,
				24.555496215820312,
				3.978973865509033
			],
			"min":[
				-11.671697616577148,
				-6.673772811889648,
				-0.6391808986663818
			],
			"type":"VEC3"
		},
		{
			"bufferView":5,
			"componentType":5126,
			"count":972,
			"type":"VEC3"
		},
		{
			"bufferView":6,
			"componentType":5126,
			"count":972,
			"type":"VEC2"
		},
		{
			"bufferView":7,
			"componentType":5123,
			"count":1464,
			"type":"SCALAR"
		},
		{
			"bufferView":8,
			"componentType":5126,
			"count":3235,
			"max":[
				1.3862817287445068,
				4.46542501449585,
				0.3428364098072052
			],
			"min":[
				-1.3862817287445068,
				-0.006659055128693581,
				-0.3706281781196594
			],
			"type":"VEC3"
		},
		{
			"bufferView":9,
			"componentType":5126,
			"count":3235,
			"type":"VEC3"
		},
		{
			"bufferView":10,
			"componentType":5126,
			"count":3235,
			"type":"VEC2"
		},
		{
			"bufferView":11,
			"componentType":5123,
			"count":4626,
			"type":"SCALAR"
		},
		{
			"bufferView":12,
			"componentType":5126,
			"count":72,
			"max":[
				1.0819276571273804,
				0.11809045076370239,
				0.32442039251327515
			],
			"min":[
				-1.0819276571273804,
				-0.8998669385910034,
				0.2835565507411957
			],
			"type":"VEC3"
		},
		{
			"bufferView":13,
			"componentType":5126,
			"count":72,
			"type":"VEC3"
		},
		{
			"bufferView":14,
			"componentType":5126,
			"count":72,
			"type":"VEC2"
		},
		{
			"bufferView":15,
			"componentType":5123,
			"count":108,
			"type":"SCALAR"
		},
		{
			"bufferView":16,
			"componentType":5126,
			"count":196,
			"max":[
				0.4069068729877472,
				4.069352626800537,
				-0.016529669985175133
			],
			"min":[
				-0.4069068729877472,
				3.8949368000030518,
				-0.10510298609733582
			],
			"type":"VEC3"
		},
		{
			"bufferView":17,
			"componentType":5126,
			"count":196,
			"type":"VEC3"
		},
		{
			"bufferView":18,
			"componentType":5126,
			"count":196,
			"type":"VEC2"
		},
		{
			"bufferView":19,
			"componentType":5123,
			"count":288,
			"type":"SCALAR"
		},
		{
			"bufferView":20,
			"componentType":5126,
			"count":216,
			"max":[
				0.2506662607192993,
				4.128427505493164,
				0.2958645522594452
			],
			"min":[
				-0.2506662607192993,
				3.8951683044433594,
				0.20937579870224
			],
			"type":"VEC3"
		},
		{
			"bufferView":21,
			"componentType":5126,
			"count":216,
			"type":"VEC3"
		},
		{
			"bufferView":22,
			"componentType":5126,
			"count":216,
			"type":"VEC2"
		},
		{
			"bufferView":23,
			"componentType":5123,
			"count":336,
			"type":"SCALAR"
		},
		{
			"bufferView":24,
			"componentType":5126,
			"count":684,
			"max":[
				0.44699594378471375,
				4.494476318359375,
				0.3601810932159424
			],
			"min":[
				-0.44699594378471375,
				3.6185500621795654,
				-0.471215158700943
			],
			"type":"VEC3"
		},
		{
			"bufferView":25,
			"componentType":5126,
			"count":684,
			"type":"VEC3"
		},
		{
			"bufferView":26,
			"componentType":5126,
			"count":684,
			"type":"VEC2"
		},
		{
			"bufferView":27,
			"componentType":5123,
			"count":828,
			"type":"SCALAR"
		},
		{
			"bufferView":28,
			"componentType":5126,
			"count":140,
			"max":[
				0.9303255081176758,
				0.03212274983525276,
				1.041619896888733
			],
			"min":[
				-0.9303255081176758,
				-0.12815728783607483,
				-0.9131617546081543
			],
			"type":"VEC3"
		},
		{
			"bufferView":29,
			"componentType":5126,
			"count":140,
			"type":"VEC3"
		},
		{
			"bufferView":30,
			"componentType":5126,
			"count":140,
			"type":"VEC2"
		},
		{
			"bufferView":31,
			"componentType":5123,
			"count":210,
			"type":"SCALAR"
		}
	],
	"bufferViews":[
		{
			"buffer":0,
			"byteLength":4056,
			"byteOffset":0,
			"target":34962
		},
		{
			"buffer":0,
			"byteLength":4056,
			"byteOffset":4056,
			"target":34962
		},
		{
			"buffer":0,
			"byteLength":2704,
			"byteOffset":8112,
			"target":34962
		},
		{
			"buffer":0,
			"byteLength":1056,
			"byteOffset":10816,
			"target":34963
		},
		{
			"buffer":0,
			"byteLength":11664,
			"byteOffset":11872,
			"target":34962
		},
		{
			"buffer":0,
			"byteLength":11664,
			"byteOffset":23536,
			"target":34962
		},
		{
			"buffer":0,
			"byteLength":7776,
			"byteOffset":35200,
			"target":34962
		},
		{
			"buffer":0,
			"byteLength":2928,
			"byteOffset":42976,
			"target":34963
		},
		{
			"buffer":0,
			"byteLength":38820,
			"byteOffset":45904,
			"target":34962
		},
		{
			"buffer":0,
			"byteLength":38820,
			"byteOffset":84724,
			"target":34962
		},
		{
			"buffer":0,
			"byteLength":25880,
			"byteOffset":123544,
			"target":34962
		},
		{
			"buffer":0,
			"byteLength":9252,
			"byteOffset":149424,
			"target":34963
		},
		{
			"buffer":0,
			"byteLength":864,
			"byteOffset":158676,
			"target":34962
		},
		{
			"buffer":0,
			"byteLength":864,
			"byteOffset":159540,
			"target":34962
		},
		{
			"buffer":0,
			"byteLength":576,
			"byteOffset":160404,
			"target":34962
		},
		{
			"buffer":0,
			"byteLength":216,
			"byteOffset":160980,
			"target":34963
		},
		{
			"buffer":0,
			"byteLength":2352,
			"byteOffset":161196,
			"target":34962
		},
		{
			"buffer":0,
			"byteLength":2352,
			"byteOffset":163548,
			"target":34962
		},
		{
			"buffer":0,
			"byteLength":1568,
			"byteOffset":165900,
			"target":34962
		},
		{
			"buffer":0,
			"byteLength":576,
			"byteOffset":167468,
			"target":34963
		},
		{
			"buffer":0,
			"byteLength":2592,
			"byteOffset":168044,
			"target":34962
		},
		{
			"buffer":0,
			"byteLength":2592,
			"byteOffset":170636,
			"target":34962
		},
		{
			"buffer":0,
			"byteLength":1728,
			"byteOffset":173228,
			"target":34962
		},
		{
			"buffer":0,
			"byteLength":672,
			"byteOffset":174956,
			"target":34963
		},
		{
			"buffer":0,
			"byteLength":8208,
			"byteOffset":175628,
			"target":34962
		},
		{
			"buffer":0,
			"byteLength":8208,
			"byteOffset":183836,
			"target":34962
		},
		{
			"buffer":0,
			"byteLength":5472,
			"byteOffset":192044,
			"target":34962
		},
		{
			"buffer":0,
			"byteLength":1656,
			"byteOffset":197516,
			"target":34963
		},
		{
			"buffer":0,
			"byteLength":1680,
			"byteOffset":199172,
			"target":34962
		},
		{
			"buffer":0,
			"byteLength":1680,
			"byteOffset":200852,
			"target":34962
		},
		{
			"buffer":0,
			"byteLength":1120,
			"byteOffset":202532,
			"target":34962
		},
		{
			"buffer":0,
			"byteLength":420,
			"byteOffset":203652,
			"target":34963
		}
	],
	"samplers":[
		{
			"magFilter":9729,
			"minFilter":9987
		}
	],
	"buffers":[
		{
			"byteLength":204072,
			"uri":"Archer.bin"
		}
	]
}
